<svg width="100" height="100" viewBox="0 0 100 100" fill="none" xmlns="http://www.w3.org/2000/svg">
<rect width="100" height="100" fill="#4E0987"/>
<ellipse cx="30.6154" cy="22.6324" rx="4.61538" ry="4.63235" fill="#D48E1A"/>
<rect x="26" y="28.191" width="9.23077" height="52.8088" fill="url(#paint0_linear)"/>
<path d="M64.3077 45.7942H36.1538V55.0589H45.3846H67.5385L64.3077 45.7942Z" fill="url(#paint1_linear)"/>
<path d="M74 74.978V65.7133C74 65.7133 65.2308 71.7353 59.2308 71.7353C45.8462 71.7353 45.3846 55.0588 45.3846 55.0588H36.1538C36.1538 55.0588 36.1538 81 59.2308 81C68.8271 81 74 74.978 74 74.978Z" fill="#D13017"/>
<path d="M72.1538 18V47.6471V55.0588H65.2308L53.6923 27.2647L72.1538 18Z" fill="#851908"/>
<path d="M36.1539 18V27.2647H63.3846L72.1539 18H36.1539Z" fill="url(#paint2_linear)"/>
<path fill-rule="evenodd" clip-rule="evenodd" d="M72.1538 18L53.6923 27.2647H63.3846L72.1538 18Z" fill="url(#paint3_linear)"/>
<path fill-rule="evenodd" clip-rule="evenodd" d="M72.1539 47.6471V18H36.1539V27.2647H53.6923L61.3847 45.7942H36.1539V55.0589H45.3846H67.5385L67.5384 55.0588H72.1539V47.6471Z" fill="#D19517" fill-opacity="0.4"/>
<path d="M74 74.9778V65.7131C74 65.7131 65.2308 71.7352 59.2308 71.7352C45.8462 71.7352 45.3846 55.0587 45.3846 55.0587H36.1539C36.1539 55.0587 36.1538 80.9999 59.2308 80.9999C68.8271 80.9999 74 74.9778 74 74.9778Z" fill="#D19517" fill-opacity="0.4"/>
<defs>
<linearGradient id="paint0_linear" x1="26" y1="53.669" x2="35.2347" y2="55.9692" gradientUnits="userSpaceOnUse">
<stop offset="0.546135" stop-color="#D6601E"/>
<stop offset="0.546235" stop-color="#D38F19"/>
<stop offset="0.666467" stop-color="#D38F19"/>
<stop offset="0.666567" stop-color="#C27715"/>
<stop offset="0.666667" stop-color="#A44B0E"/>
</linearGradient>
<linearGradient id="paint1_linear" x1="62" y1="47.6471" x2="36.1396" y2="55.0088" gradientUnits="userSpaceOnUse">
<stop stop-color="#E25E4A"/>
<stop offset="0.877983" stop-color="#D13017"/>
</linearGradient>
<linearGradient id="paint2_linear" x1="72.1539" y1="18" x2="45.8251" y2="27.2043" gradientUnits="userSpaceOnUse">
<stop stop-color="#FF6E57"/>
<stop offset="1" stop-color="#D13017"/>
</linearGradient>
<linearGradient id="paint3_linear" x1="53.6923" y1="27.2647" x2="72.1809" y2="18.0543" gradientUnits="userSpaceOnUse">
<stop stop-color="#D19517"/>
<stop offset="1" stop-color="#D19517" stop-opacity="0.5"/>
</linearGradient>
</defs>
</svg>
